<svg xmlns="http://www.w3.org/2000/svg" version="1" width="453.543" height="453.543"><path d="M168.938 347.752s-17.014 10.356 11.835 13.315c34.767 4.438 53.26 3.7 91.726-3.7 0 0 10.355 6.658 24.41 11.837-86.548 36.986-196.027-2.22-127.972-21.452zm-11.096-48.082s-18.493 14.054 10.356 17.013c37.726 3.7 67.315 4.438 118.356-5.918 0 0 6.658 7.397 17.753 11.096-104.3 31.07-221.178 2.96-146.465-22.19zm204.164 84.328s12.575 10.356-14.055 18.493c-49.56 14.796-207.862 19.234-252.246 0-15.534-6.656 14.055-16.273 23.67-17.752 9.618-2.22 14.795-2.22 14.795-2.22-17.014-11.835-113.18 24.412-48.823 34.768 176.794 28.85 322.52-12.575 276.657-33.288zm-184.93-134.63s-80.63 19.233-28.85 25.89c22.192 2.96 65.835 2.22 106.52-.74 33.287-2.96 66.575-8.877 66.575-8.877s-11.835 5.18-19.972 10.357c-82.11 21.45-239.67 11.835-194.548-10.356 38.466-18.492 70.273-16.273 70.273-16.273zm144.246 80.63c82.85-42.904 44.384-84.328 17.753-79.15-6.658 1.48-9.617 2.96-9.617 2.96s2.22-4.44 7.397-5.92c52.52-18.492 93.945 55.48-17.013 84.33 0 0 .74-.74 1.48-2.22zm-136.11 116.877c79.89 5.178 201.945-2.96 204.904-40.685 0 0-5.918 14.795-65.835 25.89-68.054 12.576-152.382 11.096-201.944 2.96 0 0 10.356 8.876 62.876 11.835z" fill="#4e7896"/><path d="M271.02 5.26s45.864 46.603-43.643 116.877c-71.753 56.958-16.274 89.506 0 126.492-42.164-37.726-72.493-71.014-51.78-102.083C205.924 100.684 289.513 78.493 271.02 5.26zm-23.67 212.3c21.45 24.412-5.918 46.604-5.918 46.604s54.74-28.11 29.59-62.877C248.088 168 230.335 151.727 326.5 96.247c0 0-151.643 37.725-79.15 121.314z" fill="#f58219"/></svg>